<?xml version="1.0" encoding="UTF-8"?>
<!-- Created with Inkscape (http://www.inkscape.org/) -->
<svg width="24" height="24" version="1.1" viewBox="0 0 6.35 6.35" xmlns="http://www.w3.org/2000/svg">
 <g stroke-linecap="round" stroke-linejoin="round">
  <path transform="scale(.26458)" d="m4.3496 0c-2.4099 0-4.3496 1.9397-4.3496 4.3496v15.301c0 2.4099 1.9397 4.3496 4.3496 4.3496h15.301c2.4099 0 4.3496-1.9397 4.3496-4.3496v-15.301c0-2.4099-1.9397-4.3496-4.3496-4.3496zm0.025391 2.1758h15.25c1.2188 0 2.1992 0.98042 2.1992 2.1992v15.25c0 1.2188-0.98042 2.1992-2.1992 2.1992h-15.25c-1.2188 0-2.1992-0.98042-2.1992-2.1992v-15.25c0-1.2188 0.98042-2.1992 2.1992-2.1992z" stroke-width="10"/>
  <g transform="translate(.11245 .11245)" stroke-width="2.6458">
   <circle cx="3.0626" cy="3.0626" r=".46302"/>
   <circle cx="1.7628" cy="1.7628" r=".46302"/>
   <circle cx="4.3623" cy="1.7628" r=".46302"/>
   <circle cx="1.7628" cy="4.3623" r=".46302"/>
   <circle cx="4.3622" cy="4.3623" r=".46302"/>
  </g>
 </g>
</svg>
